<?xml version="1.0" standalone="no"?><!DOCTYPE svg PUBLIC "-//W3C//DTD SVG 1.1//EN" "http://www.w3.org/Graphics/SVG/1.1/DTD/svg11.dtd"><svg t="1510644554431" class="icon" style="" viewBox="0 0 1024 1024" version="1.1" xmlns="http://www.w3.org/2000/svg" p-id="8264" xmlns:xlink="http://www.w3.org/1999/xlink" width="200" height="200"><defs><style type="text/css"></style></defs><path d="M512.203 513.393m-447.991 0a447.991 447.991 0 1 0 895.982 0 447.991 447.991 0 1 0-895.982 0Z" fill="#4F5D73" p-id="8265"></path><path d="M792.197 695.39c0 30.927-25.072 55.999-55.999 55.999h-447.99c-30.927 0-55.999-25.072-55.999-55.999V415.395c0-30.927 25.072-55.999 55.999-55.999h447.991c30.927 0 55.999 25.072 55.999 55.999V695.39z" fill="#231F20" p-id="8266"></path><path d="M596.201 289.398v279.994H428.205V289.398h167.996m0-55.999H428.205c-30.927 0-55.999 25.072-55.999 55.999v279.994c0 30.927 25.072 55.999 55.999 55.999h167.996c30.927 0 55.999-25.071 55.999-55.999V289.398c0-30.927-25.072-55.999-55.999-55.999z" fill="#E0995E" p-id="8267"></path><path d="M232.209 457.395V667.39c0 30.927 25.071 55.999 55.999 55.999h447.991c30.928 0 55.999-25.072 55.999-55.999V457.395H232.209z" fill="#E0995E" p-id="8268"></path><path d="M792.197 415.395c0-30.928-25.071-55.999-55.999-55.999h-447.99c-30.928 0-55.999 25.071-55.999 55.999v69.999h559.988v-69.999z" fill="#231F20" p-id="8269"></path><path d="M624.201 513.393c0 30.927-25.072 55.999-55.999 55.999H456.204c-30.927 0-55.999-25.072-55.999-55.999v-41.999c0-30.927 25.072-55.999 55.999-55.999h111.998c30.927 0 55.999 25.072 55.999 55.999v41.999z" fill="#231F20" p-id="8270"></path><path d="M568.202 443.395v41.999H456.204v-41.999h111.998m0-55.999H456.204c-30.927 0-55.999 25.072-55.999 55.999v41.999c0 30.927 25.072 55.999 55.999 55.999h111.998c30.927 0 55.999-25.072 55.999-55.999v-41.999c0-30.927-25.072-55.999-55.999-55.999z" fill="#F5CF87" p-id="8271"></path><path d="M792.197 387.396c0-30.928-25.071-55.999-55.999-55.999h-447.99c-30.928 0-55.999 25.071-55.999 55.999v69.999h559.988v-69.999z" fill="#E0995E" p-id="8272"></path></svg>