<?xml version="1.0" standalone="no"?><!DOCTYPE svg PUBLIC "-//W3C//DTD SVG 1.1//EN" "http://www.w3.org/Graphics/SVG/1.1/DTD/svg11.dtd"><svg t="1509673107800" class="icon" style="" viewBox="0 0 1024 1024" version="1.1" xmlns="http://www.w3.org/2000/svg" p-id="2567" xmlns:xlink="http://www.w3.org/1999/xlink" width="200" height="200"><defs><style type="text/css"></style></defs><path d="M6.496075 466.464754L441.174838 31.785991c21.311547-21.311547 45.865692-31.828657 70.974492-31.572662 24.980802 0.255995 49.598946 11.157096 71.145155 32.703305l433.54812 433.54812c12.970391 12.970391 3.135933 36.713886-15.210343 36.713887H913.484802v406.860687c0 62.548004-52.350888 113.725583-116.306862 113.725584h-175.228276c-10.751772 0-21.503543-9.471799-21.503543-18.922265v-285.860592c0-10.730439-4.287909-20.394233-11.157097-27.284754a33.55662 33.55662 0 0 0-23.636831-10.111785h-107.92304c-9.023808 0-17.40763 3.882584-23.636831 10.111785l0.085332-0.063998a38.548514 38.548514 0 0 0-11.242428 27.348752v285.881925c0 9.471799-10.751772 18.922265-21.503543 18.922265h-175.249609a117.224176 117.224176 0 0 1-83.091568-34.281939A112.253615 112.253615 0 0 1 109.875212 910.060661V503.178641H21.706419c-18.36761 0-28.180734-23.743495-15.210344-36.713887z m863.960308 36.713887H152.860965v406.860687a76.798368 76.798368 0 0 0 22.463523 54.462843 71.955804 71.955804 0 0 0 50.836253 21.418212h153.724733V718.982055c0-20.22357 8.362489-38.719177 21.823536-52.180225l0.085332-0.063998a78.846325 78.846325 0 0 1 55.892145-22.975512h107.92304c21.951534 0 41.727113 8.810479 55.892146 22.975512a73.875763 73.875763 0 0 1 21.908868 52.265556v266.95966h153.724733c40.319143 0 73.299776-34.153941 73.299776-75.881054V503.178641h0.021333zM73.630649 460.171555h876.077383L552.873798 63.337321c-13.269051-13.269051-27.455417-19.988909-41.065794-20.116906-13.525046-0.127997-27.434084 6.186535-40.212479 18.986263L73.630649 460.171555z" fill="#949494" p-id="2568"></path></svg>