<?xml version="1.0" standalone="no"?><!DOCTYPE svg PUBLIC "-//W3C//DTD SVG 1.1//EN" "http://www.w3.org/Graphics/SVG/1.1/DTD/svg11.dtd"><svg t="1509673722558" class="icon" style="" viewBox="0 0 1025 1024" version="1.1" xmlns="http://www.w3.org/2000/svg" p-id="5389" xmlns:xlink="http://www.w3.org/1999/xlink" width="200.1953125" height="200"><defs><style type="text/css"></style></defs><path d="M482.469 735.594h-2.109l-81.563-2.109h-92.109c-13.359 0-23.906 10.547-23.906 23.906 0 11.25 7.734 20.391 18.281 23.203 0.703 0 1.406 0 2.109 0.703h94.218l85.078 2.109h2.812c11.953-1.406 21.094-11.25 21.094-23.906 0-13.359-10.547-23.906-23.906-23.906zM481.766 596.375H306.689c-13.359 0-23.906 10.547-23.906 23.906 0 11.25 7.734 20.391 18.281 23.203 0.703 0 1.406 0 2.109 0.703h179.296c13.359 0 23.906-10.547 23.906-23.906 0-13.359-11.25-23.906-24.609-23.906zM305.984 459.266h-0.703c-13.359 0-23.906 10.547-23.906 23.906s10.547 23.906 23.906 23.906h413.438c1.406 0 3.516 0 4.922-0.703 11.25-2.109 20.391-11.953 20.391-23.906 0-13.359-10.547-23.906-23.906-23.906h-2.109l-412.031 0.703c0.703 0 0 0 0 0zM957.781 919.109l-73.828-73.828c20.391-28.828 32.344-63.984 31.641-101.953-2.109-87.891-73.828-160.313-161.719-163.125-97.031-2.813-175.781 75.938-172.266 172.969 2.813 87.891 75.234 159.609 163.125 161.719 37.969 0.703 73.125-10.547 101.953-31.641l73.828 73.828c4.922 4.922 14.063 4.922 18.984 0l18.984-18.984c4.922-4.922 4.922-13.359-0.703-18.984zM628.719 747.547c0-68.906 58.359-123.75 127.969-118.828 59.063 4.219 106.875 52.031 110.391 110.391 4.922 69.609-50.625 127.969-118.828 127.969-66.094 0-119.531-53.438-119.531-119.531z" fill="#949494" p-id="5390"></path><path d="M569.656 914.188H192.781V111.219h412.031v182.813c0 23.203 16.875 42.891 38.672 47.813 2.813 0.703 9.141 0.703 9.141 0.703h182.109v185.625h48.516V316.532c0.703-8.438-3.516-18.281-11.25-26.016l-1.406-1.406-134.297-130.781c-0.703 0-85.078-82.266-85.781-82.969-1.406-1.406-3.516-3.516-5.625-4.922-1.406-1.406-2.813-2.109-4.922-3.516-2.813-1.406-8.438-4.219-14.063-4.219H193.485c-23.203 0-42.891 16.875-47.813 38.672-0.703 2.813-0.703 6.328-0.703 9.844v802.266c0 23.203 16.875 42.891 38.672 47.109 2.813 0.703 6.328 0.703 9.844 0.703h376.172v-47.109z m83.672-768.516l155.391 148.359H653.328V145.672z" fill="#949494" p-id="5391"></path></svg>