<?xml version="1.0" standalone="no"?><!DOCTYPE svg PUBLIC "-//W3C//DTD SVG 1.1//EN" "http://www.w3.org/Graphics/SVG/1.1/DTD/svg11.dtd"><svg t="1512119715751" class="icon" style="" viewBox="0 0 1024 1024" version="1.1" xmlns="http://www.w3.org/2000/svg" p-id="4210" xmlns:xlink="http://www.w3.org/1999/xlink" width="128" height="128"><defs><style type="text/css"></style></defs><path d="M512 1024C229.248 1024 0 794.752 0 512S229.248 0 512 0s512 229.248 512 512-229.248 512-512 512z m0-938.666667C276.736 85.333333 85.333333 276.736 85.333333 512s191.402667 426.666667 426.666667 426.666667 426.666667-191.402667 426.666667-426.666667S747.264 85.333333 512 85.333333z m-60.373333 637.866667a42.794667 42.794667 0 0 1-60.330667 0 42.794667 42.794667 0 0 1 0-60.330667L542.165333 512 391.296 361.173333a42.837333 42.837333 0 0 1 0-60.373333 42.794667 42.794667 0 0 1 60.330667 0l181.034666 181.034667a42.794667 42.794667 0 0 1 0 60.330666l-181.034666 181.034667z" fill="" p-id="4211"></path></svg>